# xmcd
#
# Track frame offsets: 
#        150
#        16826
#        47089
#        65668
#        84255
#        104139
#        118665
#        132840
#        152693
#        165996
#        180438
#        198363
#        226048
#
# Disc length: 3151 seconds
#
# Revision: 0
# Processed by: cddbd v1.5.2PL0 Copyright (c) Steve Scherf et al.
# Submitted via: ExactAudioCopyFreeDBPlugin 1.0
#
DISCID=9c0c4d0d
DTITLE=John Long - Stand Your Ground
DYEAR=2016
DGENRE=Acoustic-Delta-Blues
TTITLE0=Baby Please Set a Date
TTITLE1=Red Hawk
TTITLE2=Things Can´t Be Down Always
TTITLE3=Stand Your Ground
TTITLE4=Welcome Mat
TTITLE5=No Flowers for Me
TTITLE6=One Earth, Many Colors
TTITLE7=Healin´ Touch
TTITLE8=I Know HIs Blood Can Make Me Whole
TTITLE9=Mop, Bucket and a Broom
TTITLE10=Climbing HIgh Mountains (Trying to get Home)
TTITLE11=Precious Lord, Take My Hand
TTITLE12=Suitcase Stomp
EXTD=
EXTT0=
EXTT1=
EXTT2=
EXTT3=
EXTT4=
EXTT5=
EXTT6=
EXTT7=
EXTT8=
EXTT9=
EXTT10=
EXTT11=
EXTT12=
PLAYORDER=
